<svg width="138" height="138" viewBox="0 0 138 138" fill="none" xmlns="http://www.w3.org/2000/svg">
    <g clip-path="url(#3oaons74sa)">
        <path d="M69.02 0a69 69 0 1 0 0 138 69 69 0 0 0 0-138zm22.5 64.06a15.811 15.811 0 0 1-12.22-4.29v19.2c0 9.39-7.39 17-16.45 17a16.33 16.33 0 0 1-12-5.4 17.65 17.65 0 0 1-4.35-11.6c0-9.27 7.06-16.9 16-17.14h.34c.752.015 1.502.095 2.24.24v9.39a7.099 7.099 0 0 0-2.24-.35 7.69 7.69 0 0 0-7.5 7.86 8.12 8.12 0 0 0 1.34 4.58 7.689 7.689 0 0 0 6.16 3.29 7.711 7.711 0 0 0 7.61-7.87v-37h8.84a13.27 13.27 0 0 0 3.25 8.92 10.36 10.36 0 0 0 6.39 3.88c.84.24 1.73.24 2.57 0l.02 9.29z" fill="#fff"/>
    </g>
    <defs>
        <clipPath id="3oaons74sa">
            <path fill="#fff" d="M0 0h138v138H0z"/>
        </clipPath>
    </defs>
</svg>
