<svg width="69" height="69" viewBox="0 0 69 69" fill="none" xmlns="http://www.w3.org/2000/svg">
    <g clip-path="url(#jmtwyrqlwa)" fill="#fff">
        <path d="M34.5 69A34.54 34.54 0 0 1 0 34.5 34.54 34.54 0 0 1 34.5 0 34.54 34.54 0 0 1 69 34.5 34.54 34.54 0 0 1 34.5 69zm0-63.53a29.06 29.06 0 0 0-29 29 29.06 29.06 0 0 0 29 29 29.06 29.06 0 0 0 29-29 29.06 29.06 0 0 0-29-29z"/>
        <path d="M34.56 52.28a15.34 15.34 0 0 1-12.38-6.19 2.728 2.728 0 0 1 .54-3.83 2.728 2.728 0 0 1 3.83.54 10 10 0 0 0 8 4 9.92 9.92 0 0 0 8-4 2.742 2.742 0 0 1 3.84-.54 2.74 2.74 0 0 1 .54 3.83 15.36 15.36 0 0 1-12.37 6.19z"/>
    </g>
    <defs>
        <clipPath id="jmtwyrqlwa">
            <path fill="#fff" d="M0 0h69v69H0z"/>
        </clipPath>
    </defs>
</svg>
