<svg width="138" height="138" viewBox="0 0 138 138" fill="none" xmlns="http://www.w3.org/2000/svg">
    <g clip-path="url(#bry8vwkkma)">
        <path d="M69 0a69 69 0 1 0 0 138A69 69 0 0 0 69 0zm22.66 60v1.56c0 16-11.76 34.48-33.28 34.48a32.3 32.3 0 0 1-17.92-5.44c.926.11 1.858.163 2.79.16a22.93 22.93 0 0 0 14.52-5.18 11.76 11.76 0 0 1-10.85-8.46 11.23 11.23 0 0 0 5.28-.21 12 12 0 0 1-9.38-11.88v-.16a11.41 11.41 0 0 0 5.3 1.52 12.26 12.26 0 0 1-5.2-10.08 12.36 12.36 0 0 1 1.59-6.09 32.83 32.83 0 0 0 24.06 12.65 12.547 12.547 0 0 1-.3-2.76A11.91 11.91 0 0 1 79.92 48a11.468 11.468 0 0 1 8.54 3.83 23.42 23.42 0 0 0 7.46-2.96 12.1 12.1 0 0 1-5.15 6.7 22.492 22.492 0 0 0 6.72-1.91 24.281 24.281 0 0 1-5.83 6.3V60z" fill="#fff"/>
    </g>
    <defs>
        <clipPath id="bry8vwkkma">
            <path fill="#fff" d="M0 0h138v138H0z"/>
        </clipPath>
    </defs>
</svg>
