<svg width="138" height="138" viewBox="0 0 138 138" fill="none" xmlns="http://www.w3.org/2000/svg">
    <g clip-path="url(#quvm3cqdca)" fill="#fff">
        <path d="M69 78a9 9 0 1 0 0-18 9 9 0 0 0 0 18z"/>
        <path d="M68.85.02A68.82 68.82 0 0 0 0 69.02a68.83 68.83 0 0 0 68.85 69 69.078 69.078 0 0 0 69.15-69 69.07 69.07 0 0 0-69.15-69zm27 80.13a20 20 0 0 1-1.25 6.55 13.21 13.21 0 0 1-3.12 4.78 13.08 13.08 0 0 1-4.78 3.12 19.75 19.75 0 0 1-6.56 1.23c-2.88.13-3.8.17-11.14.17-7.34 0-8.25 0-11.13-.17a19.75 19.75 0 0 1-6.55-1.25 13.08 13.08 0 0 1-4.78-3.12 13.08 13.08 0 0 1-3.12-4.78 19.75 19.75 0 0 1-1.28-6.55c-.13-2.88-.17-3.8-.17-11.13 0-7.33 0-8.26.17-11.14a19.75 19.75 0 0 1 1.25-6.55 13.08 13.08 0 0 1 3.12-4.78 13.21 13.21 0 0 1 4.78-3.12 20 20 0 0 1 6.55-1.25c2.88-.13 3.8-.16 11.13-.16 7.33 0 8.26 0 11.14.16a20 20 0 0 1 6.55 1.25 13.21 13.21 0 0 1 4.78 3.12 13.21 13.21 0 0 1 3.12 4.78 20 20 0 0 1 1.25 6.55c.13 2.88.16 3.8.16 11.14 0 7.34 0 8.25-.13 11.13l.01.02z"/>
        <path d="M90.05 53.07a8.25 8.25 0 0 0-2-3.1 8.25 8.25 0 0 0-3.1-2 14.92 14.92 0 0 0-5-.93c-2.84-.13-3.7-.16-10.91-.16s-8.06 0-10.91.16a14.91 14.91 0 0 0-5 .93 8.25 8.25 0 0 0-3.1 2 8.25 8.25 0 0 0-2 3.1 14.92 14.92 0 0 0-.93 5c-.13 2.84-.16 3.7-.16 10.91s0 8.06.16 10.91a14.91 14.91 0 0 0 .93 5 8.25 8.25 0 0 0 2 3.1 8.25 8.25 0 0 0 3.1 2 14.91 14.91 0 0 0 5 .93c2.85.13 3.7.16 10.91.16s8.07 0 10.91-.16a14.92 14.92 0 0 0 5-.93 8.25 8.25 0 0 0 3.1-2 8.25 8.25 0 0 0 2-3.1 14.91 14.91 0 0 0 .93-5c.16-2.87.16-3.68.16-10.87 0-7.19 0-8.07-.16-10.91a14.92 14.92 0 0 0-.93-5.04zm-21 29.79a13.87 13.87 0 0 1-13.91-13.84A13.87 13.87 0 0 1 69 55.15a13.87 13.87 0 0 1 13.87 13.87A13.87 13.87 0 0 1 69 82.86h.05zm14.42-25a3.239 3.239 0 0 1-3.33-3.28 3.24 3.24 0 1 1 3.28 3.24l.05.04z"/>
    </g>
    <defs>
        <clipPath id="quvm3cqdca">
            <path fill="#fff" d="M0 0h138v138H0z"/>
        </clipPath>
    </defs>
</svg>
