<svg width="138" height="138" viewBox="0 0 138 138" fill="none" xmlns="http://www.w3.org/2000/svg">
    <g clip-path="url(#xn2ucbnz1a)" fill="#fff">
        <path d="M63 78.64 78.59 69 63 59.36v19.28z"/>
        <path d="M69 0a69 69 0 1 0 0 138A69 69 0 0 0 69 0zm28.78 84.47a7.8 7.8 0 0 1-5.3 5.69C87.8 91.5 69.03 91.5 69.03 91.5s-18.76 0-23.44-1.34a7.8 7.8 0 0 1-5.3-5.69c-1.26-5-1.26-15.47-1.26-15.47s0-10.46 1.26-15.47a7.8 7.8 0 0 1 5.3-5.69c4.68-1.34 23.44-1.34 23.44-1.34s18.77 0 23.45 1.34a7.8 7.8 0 0 1 5.3 5.69c1.25 5 1.25 15.47 1.25 15.47S99 79.46 97.78 84.47z"/>
    </g>
    <defs>
        <clipPath id="xn2ucbnz1a">
            <path fill="#fff" d="M0 0h138v138H0z"/>
        </clipPath>
    </defs>
</svg>
