<svg width="537" height="72" viewBox="0 0 537 72" fill="none" xmlns="http://www.w3.org/2000/svg">
    <g clip-path="url(#6rr1btodoa)" fill="#fff">
        <path d="M33.14 57.87c-9 0-16.87-3.78-23.17-9.25l-10 10.64c3.26 3.58 15.76 12.73 33.75 12.73 12.81 0 28.57-5.87 28.57-20.69 0-16.8-18-20.28-30.09-22.87-9-2-12.81-4-12.81-8.15 0-6.67 10.37-6.67 13.11-6.67a37.93 37.93 0 0 1 20.64 6.37l7.62-10.94c-5.89-4.67-16.16-9-28.87-9C17.15.04 3.43 6.7 3.43 19.63c0 6.07 2.75 13.33 13.11 17.6 6.61 2.69 11.69 3.48 19.11 5.17 5.09 1.2 11 3.09 11 8.16.01 4.83-5.68 7.31-13.51 7.31zM105.1 26.06 125.53 54l20.54-27.84v44.55h15.14V1.19h-14.53l-21.15 30.34-21.34-30.34H89.96v69.52h15.14V26.06zM208.51 70.71h15.55V14.52h22.16V1.19h-59.97v13.33h22.26v56.19zM300.09 72c22.57 0 37.61-16.11 37.61-36S322.76 0 300.09 0s-37.53 16.21-37.53 36 15.06 36 37.53 36zm0-57.88c12.71 0 21.45 8.95 21.45 21.88 0 12.73-9 22-21.45 22s-21.35-9.25-21.35-22c0-12.93 8.75-21.88 21.35-21.88zM387.21 70.71l14.64-44.95 14.74 44.95h12.2l22.97-69.52H435.6l-12.81 44.36-14.84-44.36h-12.09l-14.13 44.46-13.42-44.46h-16.27l22.98 69.52h12.19zM489.02 26.25l33.85 44.46H537V1.19h-15.15l-.1 44.06L488 1.19h-14.13v69.52h15.15V26.25z"/>
    </g>
    <defs>
        <clipPath id="6rr1btodoa">
            <path fill="#fff" d="M0 0h537v72H0z"/>
        </clipPath>
    </defs>
</svg>
